<svg fill="none" xmlns="http://www.w3.org/2000/svg" viewBox="1190.413646055437 0 1426.865671641791 619.1466666666668" style="max-height: 500px" width="1426.865671641791" height="619.1466666666668"><g clip-path="url(#a)"><path d="M0 0h3824v611H0z" fill="#FAF7EE"/><g filter="url(#b)" opacity=".5"><path fill="#FAF7EE" d="M2039.57 258.308c0 65.811-56.81 119.692-127.15 119.692s-127.16-53.496-127.16-119.692c0-66.197 56.82-119.308 127.16-119.308s127.15 53.496 127.15 119.308Z"/></g><path fill="url(#c)" d="M2039.57 258.308c0 65.811-56.81 119.692-127.15 119.692s-127.16-53.496-127.16-119.692c0-66.197 56.82-119.308 127.16-119.308s127.15 53.496 127.15 119.308Z"/><path fill="url(#d)" d="M2682.31 220.904c50.74 0 67.69 24.596 150.19 24.596 115.5 0 83.5 29.404 208.5 29.404 51.5 0 108.5-29.404 196-29.404s125.5 66 275 66c75.67 0 149-36.596 246-36.596s149.5 36.596 222 36.596c34.59 0 174-21.916 244.5-21.916S4429 351.815 4429 373v275H1189c0-4.75-555.545-232.617-637-354.096 174 0 242-64.32 374-64.32 101 0 208.5 38.776 263 38.776 100.34 0 95.84-29.776 118.38-29.776 22.55 0 54.12 15.776 80.05 15.776 25.94 0 55.25-24.776 86.82-24.776 31.57 0 41.72 24.776 116.13 24.776s124.02 37.112 189.41 37.112c65.4 0 71.21-4.33 126.28-4.33 20.29 0 38.33 6.762 54.12 6.762 15.78 0 23.68-6.762 41.72-6.762 18.03 0 28.09-13.396 42.84-12.238 34.75 0 35.55 14.68 68.25 14.68 63.14 0 142.83-85.584 230.77-85.584 87.95 0 137.85 29.299 186.33 29.299 48.48 0 101.47-12.395 152.21-12.395Z"/><path fill="url(#e)" d="M1893.27 476.882c-.97-.668-1.89-1.452-2.92-1.98-12.77-6.53-25.75-12.61-38.29-19.613-21.76-12.152-42.33-26.369-61.34-43.109-6.7-5.901-13.07-12.245-18.03-19.939-2.31-3.572-4.31-7.485-5.8-11.523-1.03-2.795-1.29-6.056-1.29-9.108.02-6.126 2.87-10.722 7.4-14.31 6.76-5.342 14.41-8.657 22.24-11.576 12.83-4.791 26.07-7.874 39.47-9.97 14.93-2.337 29.92-4.271 44.92-6.087 7.86-.956 15.78-1.351 23.67-1.879 14.72-.994 29.44-1.903 44.16-2.842 4.07-.257 8.14-.435 12.21-.699 13.64-.885 27.28-1.747 40.92-2.71 9.33-.66 18.64-1.46 27.96-2.267 1.73-.148 3.56-.295 5.34-2.229-2.99-.543-5.54-1.211-8.13-1.452-10.15-.924-20.3-1.832-30.47-2.523-15.31-1.048-30.64-1.918-45.96-2.834-5.38-.326-10.77-.567-16.17-.877-14.6-.855-29.23-1.421-43.8-2.671-12.17-1.041-24.29-2.866-36.42-4.403-1.29-.163-2.55-.66-3.77-1.18-.46-.194-1.04-.901-1.03-1.351.02-.466.61-1.157 1.07-1.328 1.7-.621 3.42-1.312 5.18-1.522 5.23-.636 10.49-1.079 15.74-1.553 6.09-.543 12.18-1.017 18.28-1.537.46-.039.92-.194 1.38-.544-5.68-1.405-11.49-1.467-17.27-1.902-5.81-.442-11.62-.8-17.55-1.203 9.17-.746 42.35 1.25 47.02 2.95-1.54 1.017-2.95 1.235-4.39 1.444-6.77.979-13.54 1.965-20.3 2.998-1.27.194-2.52.621-3.78 1.692 2.8.427 5.59 1.01 8.4 1.258 10.64.947 21.27 1.887 31.91 2.632 14.83 1.033 29.67 1.926 44.51 2.819 10.18.613 20.36 1.04 30.53 1.723 13.28.886 26.55 1.926 39.82 2.928 7.65.574 15.32 1.032 22.95 1.84 7.74.815 15.45 1.941 23.17 3.044 1.51.217 3.02.838 4.43 1.498 1.24.582 1.32 1.545.21 2.291-1.1.745-2.31 1.459-3.55 1.793-5.93 1.561-11.83 3.401-17.85 4.372-17.65 2.857-35.35 5.311-53.02 8.005-8.42 1.281-16.86 2.469-25.01 5.241-2.16.738-4.3 1.607-6.37 2.601-1.3.621-2.54 1.475-3.68 2.407-4.54 3.719-4.59 6.941.09 10.327 2.67 1.925 5.61 3.471 8.55 4.899 9.62 4.698 19.67 8.137 29.83 11.173 22.5 6.732 44.94 13.681 67.51 20.087 28.61 8.122 57.54 14.745 86.59 20.801 18.69 3.898 37.39 7.811 56.15 11.336 15.93 2.998 31.93 5.56 47.93 8.091 12.08 1.91 24.21 3.642 36.34 5.148 10.71 1.328 21.48 2.236 32.21 3.323 0 12.159-.03 24.326.04 36.486 0 1.351-.23 1.817-1.49 1.568-.58-.116-1.19-.023-1.79-.023h-438.66v-.031Z" opacity=".65"/><path fill="#edc68c" d="M1899.98 747V476.853c214.53 62.231 361.52-91.832 603.52-91.832 106.79-.891 165 22.901 207 42.94 88 41.986 217-8.654 290-31.961 194.48-62.093 328.38 100.985 515.5 98.645 159.7-1.998 208.21-68.04 409 0 117 39.646 330 31.855 561 29.855 184.8-1.6 217.83 158.667 204 222.5H1899.98Z"/><path fill="#6f352d" d="M2294.57 550.278c-345.71 0-536.55-228.278-863.06-228.278-126.12 0-224.51 48.843-333.44 48.843C734.5 370.843 664 210 356 210c-308 0-631 222.5-950 222.5V1240h5396V509.217h-417.5c-272.5 0-613 88.488-833 88.488s-339-88.488-676.91-88.488c-224.32 0-382.68 41.061-580.02 41.061Z"/><path fill="#6f352d" d="M1439.8 269.893c1.26-3.852-2.28-5.73-3.62-8.399-.39-.781-.32-1.742-.46-2.621.33-.07.66-.141 1-.211.82.618 1.64 1.237 2.61 1.964.61-7.769.72-15.349-4.13-22.402l1.21-.445c.78.537 1.57 1.069 2.8 1.905-.25-5.849 2.05-11.573-2.23-16.825-.8-.993-.96-2.409-1.42-3.629l1.4-.684c.85 1.069 1.7 2.132 2.55 3.201 2.75-4.742.02-8.702-2.17-12.728l1.11-.488 3.18 2.436c.99-1.883 1.99-3.782 3.04-5.762-.66-1.84-1.37-3.804-2.08-5.773l1.15-.586c1.18 1.183 2.36 2.36 3.54 3.543 1.38-.765 2.82-1.573 3.87-2.165-.25-3.396-1.15-6.689-.47-9.711.47-2.122 2.94-4.01 4.86-5.681.45-.385 2.32.516 3.54.825.28.45.56.906.84 1.356l3.95-5.013.95.022c.46 1.893.91 3.792 1.21 5.073 1.28-.977 2.93-2.534 4.9-3.652 1.12-.635 3.38-1.166 4.01-.662.9.733 1.3 2.561 1 3.728-.5 1.871-1.74 3.591-2.78 5.572 1.26-.266 2.53-.7 3.81-.749.9-.033 2.08.249 2.63.792.34.336-.09 1.514-.49 2.159-.78 1.248-1.79 2.382-2.95 3.879.85.049 1.39.066 1.93.114 2.62.261 3.33 1.433 2.17 3.489-2.3 4.037-5.99 6.5-10.89 7.612-.59.13-1.16.298-1.73.477-.18.055-.31.217-.67.489.35 1.437.74 2.984 1.16 4.682 1.63-1.02 3.12-1.942 4.6-2.865.28.185.56.375.84.559-.36 3.841-7.17 6.109-3.79 10.824 1.07-.526 2.25-1.107 4.14-2.04-.13 1.253.03 1.98-.29 2.43-1.2 1.639-3.43 3.093-3.67 4.791-.46 3.255.18 6.635.37 9.967 1.41-.19 2.63-.348 3.86-.51.14.26.28.515.42.776-.91.889-1.91 1.725-2.71 2.691-.77.922-1.33 1.98-2.26 3.423 2.37-.098 3.44-3.092 5.81-.38-6.48 3.413-5.45 8.871-5.21 14.389 3.99-2.453 6.55-3.301 7.67-2.545-2.18 2.024-4.45 3.939-6.44 6.066-.89.955-1.54 2.3-1.69 3.526-.4 3.38-.46 6.798-.68 10.509l4.28-2.604c.3.206.6.413.9.613-.49.944-.72 2.122-1.5 2.794-6.01 5.127-3.99 11.817-5.03 17.888 2.16.521 3.36-2.957 5.36-.711-2.03 2.767-4.61 5.203-5.69 8.084-1.12 2.99-.78 6.408-1.07 9.609 2.13-.7 4.06-1.34 5.99-1.975.22.282.43.564.64.852-.49.683-.8 1.682-1.5 2.007-5.76 2.664-6.54 7.341-6.61 12.359-.02.896-.13 1.791-.22 3.001-6.43 1.926-12.8 1.92-19.35.038-.31-3.169-.66-6.12-.88-9.083-.19-2.49-.73-4.731-3.11-6.44-1.33-.949-2.4-2.229-3.38-3.477-.53-.662-.63-1.585-.93-2.387l.87-.494c1.69 1.161 3.37 2.327 5.19 3.581 1.37-5.713-5.73-6.972-7.37-11.318 3.46-.803 4.31 2.208 7.08 3.131-.39-2.209-.29-4.335-1.19-6.066-.87-1.687-2.75-2.962-4.19-4.416l.6-.955c1.16.358 2.33.716 3.67 1.123-.34-5.247-.44-10.466-1.14-15.626-.21-1.562-2.13-2.913-3.13-4.432-.98-1.492-3.41-2.463-2.26-5.393 1.68 1.275 3.06 2.327 4.7 3.575l-.03-.021ZM1284.75 306.554c2.96 3.191 5.92 6.382 8.87 9.574-1.14-6.856-3.48-13.396-1.92-20.278l.78-.339c.57.721 1.22 1.394 1.69 2.176 2.56 4.247 5.07 8.519 7.81 12.679-.52-6.392-1.72-12.688.01-18.932l.85-.434c.97.838 2.21 1.511 2.85 2.549 2.48 3.973 4.76 8.063 7.1 12.123.39.682.7 1.407 1.25 2.536.6-1.442.99-2.614 1.55-3.704 2-3.899 4-7.803 6.15-11.624.39-.69 1.46-.994 2.21-1.476.46.847 1.25 1.676 1.3 2.549.19 3.447.17 6.908.21 10.364.01 1.564 0 3.131.39 4.911 2.71-5.245 5.42-10.49 8.22-15.896 2.08 1.211 2.17 3.087 2.06 4.676-.36 5.289-.98 10.56-1.48 15.749 4.47-3.916 6.82-10 10.95-14.633l.91.148c.12 1.163.53 2.379.33 3.487-1.76 9.795-6.17 18.38-12.26 26.178-3.67 4.711-8.25 8.159-14.15 9.405-6.82 1.438-13.22.643-19.15-3.617-8.75-6.3-14.8-14.298-17.19-24.88-.21-.977-.11-2.024-.15-3.035l.81-.252v-.004ZM1548.52 328.096c1.41-.356 2.56-.644 3.72-.932v-.653c-.8-.154-1.6-.307-2.49-.475.5-.572.95-1.081 1.58-1.797l-1.33-.48c1.44-6.435 2.88-12.856 4.37-19.479h3.82c-.81-.619-1.19-.912-1.58-1.215.71-.317 1.41-.639 2.12-.956l.02-.624c-.89-.178-1.78-.355-2.8-.562.4-.677.81-1.368 1.36-2.286-.67-.077-1.14-.129-1.93-.216 1.03-8.495 2.17-17.116-2.87-24.915.47-.778.86-1.431 1.41-2.344l-1.34.111c.14-.937.27-1.878.4-2.82l-.47-.283-1.48 1.993c-.17-.759-.33-1.431-.55-2.382-.59.447-.98.745-1.47 1.114-4.61-4.6-9.94-6.959-16.44-4.85-.38-.908-.69-1.667-1.25-3.045-.21 1.441-.33 2.224-.46 3.146-.89-.591-1.66-1.11-2.97-1.979l.57 2.416c-.67-.048-1.35-.096-2.76-.192.93 1.104 1.42 1.685 2 2.367-1.28 1.244-2.56 2.493-3.94 3.833-.64-.898-1.21-1.681-1.78-2.464l-.57.173c.17 1.037.34 2.07.49 2.997-1.28-.413-2.6-.846-3.92-1.273-.12.288-.24.581-.37.869 1.08.735 2.15 1.47 3.16 2.157-1.06.148-2.11.297-3.17.441l-.09.711c.86.394 1.71.788 2.47 1.138-.99 4.582-1.98 9.178-2.97 13.769-.14-.091-.59-.399-1.57-1.056.38 1.349.59 2.146.85 3.078-.78.072-1.59.144-2.4.216-.03.168-.08.331-.11.5l2.3 1.508-1.72.451c-.03.23-.07.456-.11.687 1.14.317 2.28.638 3.54.989 1.03 5.216 2.08 10.575 3.18 16.146-.68-.322-1.18-.557-1.67-.797l-.37.384c.91 1.004 1.83 2.012 2.99 3.295h-2.89c-.06.177-.12.355-.19.537.7.404 1.39.802 2.06 1.191-.65.413-1.31.827-1.97 1.244l.12.533h3.5c1.54 4.433 3.04 8.525 4.38 12.674.68 2.118 1.89 3.127 4.06 3.607 4.25.936 8.44.893 12.69.139 2.33-.413 3.73-1.618 4.2-4.01.15-.773.42-1.517.64-2.324v-.005Z"/><path fill="#edc68c" d="M2474.63 389.109c-.41.097-.34.613-.78.632-.04-.083-.1-.166-.14-.259-.29-.664-.85-.92-1.53-.94-.81-.024-1.61-.012-2.42-.013-1.24-.002-2.46-.073-3.65-.522-.47-.178-1.07-.128-1.59-.065-1.13.132-2.25.279-3.35.533-1.3.303-2.61.432-3.94.363a7.086 7.086 0 0 1-2.1-.413c-.08-.032-.14-.124-.26-.233.57-.068 1.08-.08 1.57-.198.5-.119.98-.337 1.36-.744.13 0 .27.013.41-.003.14-.017.34-.018.41-.104.39-.481 1.08-.452 1.51-.848.2-.181.43-.21.7-.197.18.01.43-.012.55-.123.23-.219.49-.323.8-.395-.52.022-1.04.028-1.56.07-1.26.104-2.51.031-3.71-.41-.3-.108-.56-.314-.82-.496-.08-.061-.12-.192-.23-.382.28.017.48-.018.64.048.34.134.62.014.93-.057.88-.202 1.76-.425 2.69-.396.52.017 1-.2 1.5-.312.42-.094.77-.454 1.25-.325.06.016.14-.073.3-.158-.18-.093-.29-.167-.42-.208a10.95 10.95 0 0 0-2.88-.576c-1.11-.063-2.21-.276-3.32-.347a16.45 16.45 0 0 1-2.49-.367c-.54-.12-1.09-.245-1.59-.456-.71-.293-1.38-.668-2.07-1.009a.779.779 0 0 1-.17-.122c-.17-.153-.13-.357.1-.387.24-.033.5-.043.75-.005.81.128 1.62.138 2.45.009.52-.082 1.06-.03 1.59-.04.22-.005.44.005.65-.029.61-.097 1.22-.213 1.91-.335.02.017.13.078.26.152l.33-.28c-.05-.051-.08-.101-.12-.116-1.06-.379-2.13-.74-3.18-1.136-1.39-.524-2.73-1.157-3.93-2.041-.16-.12-.39-.206-.34-.524.24.031.48.068.72.092.25.024.5.03.75.05.12.011.25.059.37.047.74-.073 1.46.096 2.19.178.31.035.63.006.95.026.19.012.39.037.56.106.2.079.39.114.6.137.38.041.74.212 1.11.34.4.142.8.311 1.21.435.14.043.31-.011.5-.021.31.32.73.372 1.17.394.52.026 1.03.119 1.42.51.64.081.91.778 1.52.916.11.023.19.161.29.237.3.235.56.562 1.02.459.05-.011.12.004.15.036.21.206.47.135.79.132-.22-.278-.39-.527-.59-.751-.68-.749-1.36-1.501-2.06-2.225-.91-.938-2.03-1.62-3.17-2.251-.78-.43-1.56-.864-2.34-1.302-.18-.102-.34-.23-.61-.409.22-.082.32-.151.42-.155.3-.008.61.016.91.017.37.002.71.065 1.04.236.43.22.88.394 1.37.426.09.005.17.056.25.079.42.111.83.222 1.24.33l1.22.31c.08-.42-.19-.729-.35-1.058-.47-.984-1.18-1.792-1.98-2.541-1.13-1.054-2.21-2.158-3.32-3.239-.58-.571-1.17-1.13-1.75-1.711a6.804 6.804 0 0 1-.67-.82c-.09-.129-.09-.311-.16-.525.44.047.69.283.99.424.11.053.21.148.32.163.73.095 1.35.405 1.91.871.18.157.4.287.62.398.57.286 1.13.586 1.66.951.3.206.68.28 1 .469.29.183.55.431.82.663.35.311.7.634 1.05.949.05.047.12.076.19.109.86.447 1.55 1.074 2.13 1.853.24.331.41.679.6 1.03.3.527.58 1.091 1.09 1.478.18.133.32.302.54.503l1.02.239c.08-.255-.02-.48-.11-.697-.63-1.508-1.27-3.015-1.91-4.519a41.249 41.249 0 0 0-2.24-4.438c-.4-.702-.89-1.36-1.27-2.074-.31-.589-.52-1.229-.76-1.852-.09-.243-.13-.505.03-.772.25.017.32.22.42.37.61.911 1.22 1.819 2 2.601.52.509 1.09.896 1.76 1.177.46.187.85.516 1.25.806.2.144.36.342.55.508.32.293.54.638.64 1.071.05.192.19.367.31.536.1.141.21.286.35.389.38.29.37.769.63 1.135 0-.264.02-.531 0-.793-.07-.768-.12-1.543-.25-2.301-.17-.915-.36-1.831-.63-2.721a29.315 29.315 0 0 0-1.11-3.014c-.33-.781-.49-1.607-.77-2.397-.16-.456-.21-.87-.13-1.303.17-.126.31-.09.39.047.11.193.27.315.48.389.11.036.19.155.28.241.13.137.25.306.41.411.23.148.47.257.51.567 0 .059.07.116.13.163.32.296.65.589.98.884.05.048.12.091.15.151.15.4.45.704.7 1.044.16.214.23.477.53.568.04.015.09.059.11.102.37.863 1.09 1.498 1.53 2.319.25.47.65.865 1.04 1.375.1-.678.21-1.271.27-1.868.02-.233.05-.439.19-.644.11-.172.16-.386.23-.581l.18-.49c.03-.063.1-.113.11-.177.09-.405.18-.81.26-1.218.16-.81.27-1.631.47-2.431.11-.451.35-.873.55-1.3.04-.078.16-.12.26-.194.28.32.47.636.57 1.023.09.352.29.678.41 1.022.26.709.51 1.425.76 2.137.09.246.18.489.29.783.27-.23.53-.378.59-.706.01-.091.1-.189.19-.244.16-.11.33-.203.34-.434.01-.067.11-.129.17-.189.12-.124.29-.225.35-.371.2-.515.68-.739 1.07-1.118.06.111.12.18.13.255.02.121.01.246.01.369.04 1.09.07 2.179.11 3.269.03.917-.04 1.828-.17 2.736-.03.208-.05.423-.03.632.01.143.08.281.15.469.16-.092.28-.138.37-.21.28-.212.52-.501.94-.434.05.008.14-.047.18-.099.35-.502.97-.35 1.45-.637.12.578-.19 1.042-.2 1.54 0 .482 0 .965.09 1.472l.72-1.013c.42-.592.83-1.186 1.25-1.779.03-.043.06-.094.1-.127.93-.734 1.71-1.651 2.83-2.157.43-.198.85-.426 1.29-.647.15.231-.02.339-.13.469-.39.473-.84.916-1.17 1.429-.33.509-.7.997-.92 1.574-.15.386-.43.721-.64 1.091-.18.338-.34.687-.49 1.04-.16.372-.32.749-.44 1.135-.12.399-.23.807-.3 1.219-.13.832-.24 1.668-.36 2.503-.02.12-.02.241-.03.352.44.216.47.2.72-.111.13-.16.3-.282.46-.42l.64-.559c.05.008.17.024.33.045.11-.106.26-.213.37-.348.13-.163.31-.194.48-.276.49-.226 1.06-.291 1.44-.729.09-.103.27-.135.42-.184.08-.027.19.004.26-.037.49-.289 1.02-.541 1.44-.906.27-.232.55-.435.85-.631.32-.215.64-.439 1.02-.699.05.14.13.249.11.341-.04.205-.09.418-.19.599-.86 1.581-1.89 3.019-3.34 4.154-.97.765-1.76 1.704-2.41 2.749a.394.394 0 0 0-.06.144c-.01.029.01.064.01.088.6-.011 1.06-.456 1.66-.451.05 0 .12-.025.15-.062.22-.368.63-.237.94-.356.45-.176.92.003 1.35-.18a.41.41 0 0 1 .27-.004c.35.129.67.04 1-.108.27.199.55.219.86.109.13-.047.28-.032.42-.048.17-.019.35-.043.52-.063.19-.021.38-.045.57-.057.08-.007.18.025.26.011.42-.068.83-.157 1.25-.215.16-.023.33.019.59.039-.14.184-.19.298-.28.364-.67.51-1.39.956-2.2 1.214-1.62.52-3.04 1.37-4.43 2.315-1.03.695-1.92 1.54-2.92 2.256-.49.353-.97.726-1.46 1.07-.35.237-.38.597-.45.964.59-.497 1.19-.991 1.79-1.492.27-.228.5-.501.92-.458.09.009.18-.094.28-.134.23-.095.46-.173.68-.279.29-.135.57-.293.85-.435.14-.07.31-.208.43-.177.35.093.62-.074.91-.202.08-.036.16-.092.24-.1.57-.06 1.14-.109 1.71-.164.48-.047.96-.137 1.44-.133.41.003.81-.099 1.26.059.5.179 1.07.187 1.61.211.63.029 1.25-.004 1.85.131.12.186.06.312-.1.365-.61.204-1.16.509-1.82.609-1.22.184-2.44.432-3.63.723-1.15.279-2.27.658-3.26 1.318-.99.651-1.96 1.314-2.93 1.977-.12.078-.21.187-.31.277.24.486.42.558.87.399.14-.045.29-.099.42-.074.26.055.52.122.79.012a.133.133 0 0 1 .1-.003c.72.304 1.51.201 2.26.356.66.135 1.34.164 2 .288.3.057.59.225.87.356.16.072.3.174.55.321-.54.222-1.03.098-1.49.236-.45.139-.95.163-1.42.266-.46.098-.9.225-1.35.354-.46.134-.93.272-1.38.434-.45.163-.89.36-1.4.569.42.291.66.693 1.13.839.2.065.31.223.35.432.05.33.23.584.48.796.26.21.43.469.49.785-.18.225-.4.172-.6.124-.75-.171-1.49-.379-2.25-.527-1.31-.259-2.62-.531-3.98-.621-1.01-.066-2 .042-3.01.051-.77.008-1.54.095-2.31.094-.64-.001-1.29-.079-1.93-.123-.35-.025-.67.049-.98.21-1.07.538-2.16.585-3.28.149-.1-.039-.2-.065-.29-.09l.01.008ZM2401.99 383.092c-.35 1.442-.73 2.876-1.1 4.329 0 3.682-1.94 7.836-3.06 9.574a.833.833 0 0 0-.24-.09c-.13.323-.23.607-.31.812-.24.228-.13.23.07.124.37.627.74 1.152.98 1.727.22.529.37 1.115.41 1.685.07.956-.42 1.641-1.34 1.921-.47.144-.99.186-1.48.2-4.61.126-8.9-3.145-13.36-2.121-1.79.409 1.81.193 0 0-1.81-4.258-2.97-5.253-4.07-9.103-.02-.155-.01-.244-.04-.325a830.3 830.3 0 0 0-.54-1.667c-1.89-5.64-3.49-11.341-3.96-17.298-.23-3.013-.22-6.015.47-8.98.13-.537.27-1.069.41-1.609-1.04-1.051-2.07-2.059-3.06-3.097-3.05-3.19-5.92-6.526-8.12-10.364-1.53-2.665-2.68-5.457-2.79-8.589-.02-.463-.29-.918-.41-1.27-.55-.139-.98-.218-1.39-.351-.63-.204-.88-.779-1.27-1.255-.8-.993-.74-1.598-.17-2.7.17-.33.48-.681.46-1.006-.06-.909.47-1.426 1.13-1.798.89-.506 1.86-.897 2.8-1.32.12-.052.3-.042.42.014.61.284 1.13-.026 1.7-.242.66.384 1.34.781 1.92 1.123l4.04-1.556c-.06-.644-.11-1.292-.16-1.941.35.302.54.66.77.983.2.284.21.821.89.712-1.35-3.916-2.57-7.805-2.98-11.86-.35-.156-.62-.27-.89-.393-2.06-.946-4.09-1.96-5.89-3.348-1.13-.865-2.15-1.832-2.82-3.104-.67-1.26-.78-2.55-.25-3.887.1-.251.13-.53.2-.796l-.19-.165c.69-.658 1.37-1.316 2.05-1.974l.24.221c-.04-.228-.09-.456-.16-.783.33.205.54.341.77.486 1.08-.703 2.27-.782 3.5-.672v-1.07c.26.419.41.695.6.94.16.2.33.434.55.537 1.37.65 2.41 1.665 3.35 2.806.5.609.98 1.239 1.54 1.964.44-.401.84-.769 1.24-1.139l.35.142c.01-.148.03-.212.01-.258-.09-.214-.2-.423-.3-.634-.92-1.96-1.81-3.937-2.25-6.069-.5-2.418-.61-4.771 1.4-6.715-.88-.374-1.36-.993-1.77-1.83-.54-1.102-.36-1.92.36-2.776.24-.283.53-.593.6-.93.15-.709.58-1.176 1.19-1.388 1.06-.372 2.16-.625 3.25-.913.1-.026.23.035.33.088.57.316 1.16.253 1.8.039.47.419.99.81 1.41 1.288.3.336.7.831.64 1.186-.14.812.32 1.175.8 1.544.06.67.12 1.293.2 2.056-.33.536-.74 1.206-1.18 1.927.08.067.25.207.46.372.19-.23.35-.418.52-.623.05.095.08.121.08.146-.03.317-.08.635-.09.954 0 .225-.01.474.08.671.87 1.874.92 3.855.77 5.848-.18 2.457-.71 4.846-1.52 7.193.38.463.76.929 1.16 1.421.23-.372.44-.709.73-1.174.04.265.07.37.07.472-.03.319-.08.639-.1.958-.02.404-.13.853 0 1.207 1.08 2.857 1.19 5.829 1.11 8.818-.08 3.132-.5 6.23-1.11 9.303-.2 1.025-.42 2.048-.63 3.044 1.51 1.539 2.6 3.268 3.47 5.136 1.59 3.419 2.61 7.007 3.27 10.704.18.997.34 1.995.53 3.101.09-.172.12-.222.14-.274 1.17-3.497 2.47-6.938 4.27-10.176 1.59-2.866 3.48-5.486 6.24-7.383.01.005.01.009.01.014 0-.009.01-.017.01-.024.03-.082.03-.027 0 0 0 .001 0 .003-.01.004 0 .002 0 .004-.01.006-.85-2.156-1.7-4.17-2.43-6.224-.47-1.294-.71-2.66-.62-4.048.11-1.852.75-3.419 2.54-4.313.2-.1.36-.278.49-.376l2.95-.298c.09-.179.18-.385.32-.674.12.319.2.554.29.805l1.65.536c.56-.641 1.33-.871 2-1.28.78-.48 1.64.011 2.32-.458 1.09.515 1.79.971 1.86 1.452.07.573.37.877.82 1.068.14.482.27.918.37 1.261v.01c-.08 1.065-.45 1.837-1.57 1.889-.5 1.322-1.28 2.211-2.87 2.127.13 2.583-.39 5.027-.94 7.386l2.71 1.565c.36-.272.75-.567 1.14-.864l.11.13-.75 1.339c.25.272.5.541.74.805.47-.275.84-.503 1.23-.722 1.15-.662 2.36-1.188 3.69-1.388 1.33-.199 3.06.398 3.67 1.988.1.272.29.51.41.7-.17.737-.33 1.432-.48 2.056-1.81.957-3.81 1.165-5.84 1.043-.6.558-1.17 1.07-1.71 1.605-.16.16-.3.37-.37.583-.65 2.102-1.82 3.911-3.13 5.653-2.34 3.111-5.1 5.829-8.05 8.37-.23.204-.46.416-.64.581.86.997 1.66 1.925 2.5 2.892.63-.814 1.27-1.646 1.91-2.48.09.309.06.534 0 .755-.28 1.105-.57 2.206-.83 3.315-.06.263-.07.586.03.833 1.1 2.86 1.42 5.836 1.39 8.865-.06 4.313-.66 8.561-1.66 12.753Z"/></g><defs fill="#000"><linearGradient fill="#000" gradientUnits="userSpaceOnUse" y2="335.903" x2="1912.42" y1="139" x1="1912.42" id="c"><stop stop-color="#fff"/><stop stop-opacity="0" stop-color="#fff" offset="1"/></linearGradient><linearGradient fill="#000" gradientUnits="userSpaceOnUse" y2="621.623" x2="1986.98" y1="241.424" x1="1983.56" id="d"><stop stop-color="#F8E8CA" offset=".079"/><stop stop-color="#FFF7E7" offset=".371"/></linearGradient><linearGradient fill="#000" gradientUnits="userSpaceOnUse" y2="477" x2="2050.4" y1="290" x1="2050.4" id="e"><stop stop-color="#95C1C7"/><stop stop-opacity="0" stop-color="#73AFB6" offset="1"/></linearGradient><clipPath fill="#000" id="a"><path d="M0 0h3824v611H0z" fill="#fff"/></clipPath><filter fill="#000" color-interpolation-filters="sRGB" filterUnits="userSpaceOnUse" height="739" width="754.305" y="49" x="1535.26" id="b"><feFlood result="BackgroundImageFix" flood-opacity="0"/><feColorMatrix result="hardAlpha" values="0 0 0 0 0 0 0 0 0 0 0 0 0 0 0 0 0 0 127 0" in="SourceAlpha"/><feOffset dy="160"/><feGaussianBlur stdDeviation="125"/><feComposite operator="out" in2="hardAlpha"/><feColorMatrix values="0 0 0 0 0.988235 0 0 0 0 0.858824 0 0 0 0 0.6 0 0 0 1 0"/><feBlend result="effect1_dropShadow_982_13442" in2="BackgroundImageFix"/><feBlend result="shape" in2="effect1_dropShadow_982_13442" in="SourceGraphic"/></filter></defs></svg>